<?xml version="1.0" encoding="utf-8"?>
<!-- Generator: Adobe Illustrator 22.0.0, SVG Export Plug-In . SVG Version: 6.00 Build 0)  -->
<svg version="1.1" id="Layer_1" xmlns="http://www.w3.org/2000/svg" xmlns:xlink="http://www.w3.org/1999/xlink" x="0px" y="0px"
	 viewBox="0 0 737.06 286.69" style="enable-background:new 0 0 737.06 286.69;" xml:space="preserve">
<style type="text/css">
	.st0{fill:#184A6F;}
	.st1{fill:#FFFFFF;}
	.st2{clip-path:url(#SVGID_2_);}
	.st3{fill:#4C7DA9;}
	.st4{clip-path:url(#SVGID_4_);}
	.st5{fill:#DD8048;}
	.st6{clip-path:url(#SVGID_6_);}
	.st7{fill:#51B092;}
	.st8{clip-path:url(#SVGID_8_);}
	.st9{fill:#50965F;}
	.st10{clip-path:url(#SVGID_10_);}
	.st11{fill:#A063A4;}
	.st12{clip-path:url(#SVGID_12_);}
	.st13{fill:#E8C147;}
	.st14{clip-path:url(#SVGID_14_);}
	.st15{fill:#4790CB;}
	.st16{clip-path:url(#SVGID_16_);}
	.st17{fill:#D65D54;}
</style>
<path class="st0" d="M50.22,201.75H0.42v-7.4L90.06,0H112l89.92,194.36v7.4H152.1L100.87,85.08L50.22,201.75z"/>
<path class="st0" d="M352.42,48.09h-73.7v28.17h67.73v45.25h-67.73v35H355v45.25H228.07V2.56h124.35V48.09z"/>
<path class="st0" d="M379.17,48.09V2.56h148v45.53h-48.69v153.66h-50.37V48.09H379.17z"/>
<path class="st1" d="M622.18,186.55h-17.7v0.18l17.7-1V186.55z"/>
<g>
	<defs>
		
			<rect id="SVGID_1_" x="590.552" y="71.851" transform="matrix(0.0021 -1 1 0.0021 434.9097 834.7944)" width="90.35" height="255.271"/>
	</defs>
	<clipPath id="SVGID_2_">
		<use xlink:href="#SVGID_1_"  style="overflow:visible;"/>
	</clipPath>
	<g class="st2">
		<circle class="st3" cx="635" cy="102.446" r="98.7"/>
	</g>
</g>
<g>
	<defs>
		
			<rect id="SVGID_3_" x="658.512" y="-96.017" transform="matrix(0.6875 -0.7262 0.7262 0.6875 196.9632 520.9097)" width="90.35" height="255.27"/>
	</defs>
	<clipPath id="SVGID_4_">
		<use xlink:href="#SVGID_3_"  style="overflow:visible;"/>
	</clipPath>
	<g class="st4">
		
			<ellipse transform="matrix(0.7071 -0.7071 0.7071 0.7071 114.6236 479.6033)" class="st5" cx="636.244" cy="101.439" rx="98.7" ry="98.7"/>
	</g>
</g>
<g>
	<defs>
		
			<rect id="SVGID_5_" x="592.358" y="-123.829" transform="matrix(0.003 -1 1 0.003 631.8354 641.326)" width="90.35" height="255.271"/>
	</defs>
	<clipPath id="SVGID_6_">
		<use xlink:href="#SVGID_5_"  style="overflow:visible;"/>
	</clipPath>
	<g class="st6">
		<circle class="st7" cx="636.268" cy="100.872" r="98.7"/>
	</g>
</g>
<g>
	<defs>
		<rect id="SVGID_7_" x="689.776" y="-24.604" width="90.35" height="255.27"/>
	</defs>
	<clipPath id="SVGID_8_">
		<use xlink:href="#SVGID_7_"  style="overflow:visible;"/>
	</clipPath>
	<g class="st8">
		<circle class="st9" cx="637.92" cy="102.14" r="98.7"/>
	</g>
</g>
<g>
	<defs>
		<rect id="SVGID_9_" x="492.572" y="-25.576" width="90.35" height="255.27"/>
	</defs>
	<clipPath id="SVGID_10_">
		<use xlink:href="#SVGID_9_"  style="overflow:visible;"/>
	</clipPath>
	<g class="st10">
		<circle class="st11" cx="634.76" cy="101.16" r="98.7"/>
	</g>
</g>
<g>
	<defs>
		
			<rect id="SVGID_11_" x="433.809" y="-8.886" transform="matrix(0.6677 -0.7444 0.7444 0.6677 159.4878 429.2206)" width="253.43" height="89.7"/>
	</defs>
	<clipPath id="SVGID_12_">
		<use xlink:href="#SVGID_11_"  style="overflow:visible;"/>
	</clipPath>
	<g class="st12">
		<circle class="st13" cx="632.816" cy="99.563" r="97.99"/>
	</g>
</g>
<g>
	<defs>
		
			<rect id="SVGID_13_" x="522.273" y="45.164" transform="matrix(0.684 -0.7294 0.7294 0.684 52.7439 468.9849)" width="90.92" height="256.89"/>
	</defs>
	<clipPath id="SVGID_14_">
		<use xlink:href="#SVGID_13_"  style="overflow:visible;"/>
	</clipPath>
	<g class="st14">
		<circle class="st15" cx="633.795" cy="101.72" r="99.32"/>
	</g>
</g>
<g>
	<defs>
		
			<rect id="SVGID_15_" x="581.643" y="123.872" transform="matrix(0.6871 -0.7266 0.7266 0.6871 99.1163 568.2404)" width="255.27" height="90.35"/>
	</defs>
	<clipPath id="SVGID_16_">
		<use xlink:href="#SVGID_15_"  style="overflow:visible;"/>
	</clipPath>
	<g class="st16">
		
			<ellipse transform="matrix(0.7071 -0.7071 0.7071 0.7071 114.0341 481.4079)" class="st17" cx="638.128" cy="103.053" rx="98.7" ry="98.7"/>
	</g>
</g>
<path class="st0" d="M0,273.11v-29.63h3.83L15.8,261l12-17.53h3.77v29.63h-3.36v-24.44L17.1,264.9h-2.59L3.33,248.66v24.45L0,273.11
	L0,273.11z"/>
<path class="st0" d="M67.1,270.33c0.778-0.018,1.548-0.164,2.28-0.43v2.84c-1.025,0.395-2.112,0.605-3.21,0.62
	c-2.53,0-4.82-1.23-5.12-4.57c-3.162,3.314-7.581,5.131-12.16,5c-5.19,0-10.31-2.72-10.31-8.77c0-7.35,6.79-9.69,13.09-9.69
	c3.151,0.017,6.285,0.454,9.32,1.3v-2c0-5.19-3.33-8.64-9.45-8.64c-3.645-0.016-7.256,0.698-10.62,2.1v-3.46
	c3.538-1.227,7.256-1.852,11-1.85c7.84,0,12.53,4.38,12.53,12.29v12.66c-0.15,1.289,0.774,2.456,2.063,2.606
	C66.708,270.358,66.905,270.356,67.1,270.33z M49.57,270.76c4.52,0.051,8.782-2.097,11.43-5.76v-5.43
	c-2.882-0.771-5.847-1.187-8.83-1.24c-4.88,0-10,1.61-10,6.54C42.16,268.91,45.8,270.76,49.57,270.76L49.57,270.76z"/>
<path class="st0" d="M90.68,242.8c8.46,0,14.76,6.36,14.76,15.5s-6.3,15.5-14.76,15.5c-4.928,0.114-9.569-2.31-12.29-6.42v19.32
	h-3.51v-43.22H78v6.11C80.785,245.304,85.569,242.742,90.68,242.8z M90.25,246c-5.293,0.052-10.018,3.33-11.92,8.27v8
	c1.902,4.94,6.627,8.218,11.92,8.27c6.54,0,11.67-4.63,11.67-12.29S96.79,246,90.25,246z"/>
<path class="st0" d="M113,273.11v-29.63h3.52v12.84h6.85l10.37-12.84h4.07L126.18,258l13.21,15.06h-4.14l-12-13.52h-6.67v13.52H113
	V273.11z"/>
<path class="st0" d="M155.68,242.8c11.24,0,15.06,9.32,13.52,17.1h-24.63c0.43,7.53,6.67,10.68,13.27,10.68
	c3.382,0.032,6.717-0.797,9.69-2.41v3.46c-3.182,1.505-6.671,2.245-10.19,2.16c-8.64,0-16.3-4.82-16.3-15.5
	C141.05,248.11,148.52,242.8,155.68,242.8z M155.93,246.01c-5.8,0-11.05,3.77-11.36,10.8h21.55c0.49-4.2-1.85-10.81-10.19-10.81
	V246.01z"/>
<path class="st0" d="M183.83,273.11v-26.36h-11.48v-3.27h26.49v3.27h-11.49v26.36H183.83z"/>
<path class="st0" d="M204.64,273.11v-29.63h3.52v24l20.06-24h3v29.63h-3.46v-24l-20.13,24h-3H204.64z"/>
<path class="st0" d="M240.87,273.11v-29.63h3.52v13.21h19.26v-13.21h3.46v29.63h-3.46V259.9h-19.26v13.21H240.87z"/>
<path class="st0" d="M276.74,273.11v-29.63H298v3.27h-17.75v26.36h-3.52H276.74z"/>
<path class="st0" d="M315.88,242.8c8.09,0,15.62,5.49,15.62,15.5s-7.53,15.5-15.62,15.5s-15.56-5.49-15.56-15.5
	S307.91,242.8,315.88,242.8z M315.94,246.13c-6.61,0-12.1,4.45-12.1,12.16c0,7.71,5.49,12.16,12.1,12.16s12-4.45,12-12.16
	S322.48,246.13,315.94,246.13z"/>
<path class="st0" d="M339.08,273.11v-29.63h15.68c5.37,0,9.08,2.84,9.08,7.84c0.142,2.978-1.694,5.693-4.51,6.67
	c3.306,0.728,5.618,3.717,5.49,7.1c0,5.06-3.52,8-9.45,8h-16.3L339.08,273.11z M342.54,256.56h11.92c3.58,0,5.8-1.54,5.8-4.94
	c0-3.58-2.59-5.06-5.93-5.06h-11.79L342.54,256.56L342.54,256.56z M342.54,270.02h12.29c3.7,0,6.48-1.3,6.48-5.12
	c0-4.14-3-5.25-6.24-5.25h-12.53V270L342.54,270.02z"/>
<path class="st0" d="M386.25,242.8c8.09,0,15.62,5.49,15.62,15.5s-7.53,15.5-15.62,15.5s-15.56-5.49-15.56-15.5
	S378.28,242.8,386.25,242.8z M386.31,246.13c-6.61,0-12.1,4.45-12.1,12.16c0,7.71,5.5,12.16,12.1,12.16s12-4.45,12-12.16
	S392.85,246.13,386.31,246.13z"/>
<path class="st0" d="M422,242.8c11.24,0,15.06,9.32,13.52,17.1h-24.58c0.43,7.53,6.67,10.68,13.27,10.68
	c3.382,0.031,6.717-0.798,9.69-2.41v3.46c-3.182,1.505-6.671,2.245-10.19,2.16c-8.64,0-16.3-4.82-16.3-15.5
	C407.42,248.11,414.89,242.8,422,242.8z M422.3,246c-5.8,0-11.05,3.77-11.36,10.8h21.55C433,252.61,430.63,246,422.3,246z"/>
<path class="st0" d="M485,270.33c0.778-0.018,1.548-0.164,2.28-0.43v2.84c-1.025,0.395-2.112,0.605-3.21,0.62
	c-2.53,0-4.82-1.23-5.12-4.57c-3.163,3.313-7.582,5.13-12.16,5c-5.19,0-10.31-2.72-10.31-8.77c0-7.35,6.79-9.69,13.09-9.69
	c3.151,0.017,6.285,0.454,9.32,1.3v-2c0-5.19-3.33-8.64-9.45-8.64c-3.645-0.016-7.256,0.698-10.62,2.1v-3.46
	c3.538-1.227,7.256-1.852,11-1.85c7.84,0,12.53,4.38,12.53,12.29v12.66c-0.15,1.289,0.774,2.456,2.063,2.606
	C484.608,270.358,484.805,270.356,485,270.33z M467.47,270.76c4.523,0.039,8.783-2.125,11.42-5.8v-5.43
	c-2.882-0.771-5.847-1.187-8.83-1.24c-4.88,0-10,1.61-10,6.54c-0.06,4.08,3.59,5.93,7.36,5.93L467.47,270.76z"/>
<path class="st0" d="M492.73,273.11v-29.63H514v3.27h-17.75v26.36H492.73z"/>
<path class="st0" d="M530.94,242.8c11.24,0,15.06,9.32,13.52,17.1h-24.63c0.43,7.53,6.67,10.68,13.27,10.68
	c3.382,0.031,6.717-0.798,9.69-2.41v3.46c-3.182,1.505-6.671,2.245-10.19,2.16c-8.64,0-16.3-4.82-16.3-15.5
	C516.31,248.11,523.78,242.8,530.94,242.8z M531.19,246.01c-5.8,0-11.05,3.77-11.36,10.8h21.55c0.49-4.2-1.86-10.81-10.19-10.81
	V246.01z"/>
<path class="st0" d="M552.05,273.11v-29.63h3.52v13.21h19.26v-13.21h3.46v29.63h-3.46V259.9h-19.26v13.21H552.05z"/>
<path class="st0" d="M595.57,273.11v-26.36h-11.48v-3.27h26.48v3.27h-11.48v26.36H595.57z"/>
<path class="st0" d="M629,242.8c3.173-0.107,6.305,0.732,9,2.41v3.4c-2.498-1.736-5.479-2.642-8.52-2.59
	c-6.36,0-12.9,3.64-12.9,12.41c0,8.33,6.17,12.16,12.53,12.16c3.225,0.016,6.397-0.815,9.2-2.41v3.52
	c-3.022,1.446-6.34,2.165-9.69,2.1c-7.66,0-15.56-4.82-15.56-15.31C613,247.55,621.31,242.8,629,242.8z"/>
<path class="st0" d="M653.47,273.11v-26.36H642v-3.27h26.49v3.27H657v26.36h-3.52H653.47z"/>
<path class="st0" d="M674.28,273.11v-29.63H690c5.37,0,9.08,2.84,9.08,7.84c0.142,2.978-1.694,5.693-4.51,6.67
	c3.306,0.728,5.618,3.717,5.49,7.1c0,5.06-3.52,8-9.45,8h-16.3L674.28,273.11z M677.74,256.56h11.92c3.58,0,5.8-1.54,5.8-4.94
	c0-3.58-2.59-5.06-5.93-5.06h-11.8v10H677.74z M677.74,270.02H690c3.7,0,6.48-1.3,6.48-5.12c0-4.14-3-5.25-6.24-5.25h-12.51V270
	L677.74,270.02z"/>
<path class="st0" d="M721.44,242.8c8.09,0,15.62,5.49,15.62,15.5s-7.53,15.5-15.62,15.5s-15.56-5.49-15.56-15.5
	S713.48,242.8,721.44,242.8z M721.5,246.13c-6.61,0-12.1,4.45-12.1,12.16c0,7.71,5.5,12.16,12.1,12.16s12-4.45,12-12.16
	S728,246.13,721.5,246.13z"/>
</svg>
